Coordinates
version=1
nRows=6
nColumns=36
inDegrees=yes

Units are S.I. units (second, meters, Newtons, ...)
Angles are in degrees.

endheader
time	pelvis_tilt	pelvis_list	pelvis_rotation	pelvis_tx	pelvis_ty	pelvis_tz	hip_flexion_r	hip_adduction_r	hip_rotation_r	knee_angle_r	ankle_angle_r	subtalar_angle_r	hip_flexion_l	hip_adduction_l	hip_rotation_l	knee_angle_l	ankle_angle_l	subtalar_angle_l	lumbar_extension	lumbar_bending	lumbar_rotation	arm_flex_r	arm_add_r	arm_rot_r	elbow_flex_r	pro_sup_r	wrist_flex_r	wrist_dev_r	arm_flex_l	arm_add_l	arm_rot_l	elbow_flex_l	pro_sup_l	wrist_flex_l	wrist_dev_l
      2.04000000	      0.94780626	     -1.68788818	      6.55071552	      0.29818725	      0.92150994	     -0.23162503	     -1.29668177	      7.31004660	     -6.07516360	    -15.03522248	     10.25778928	     -1.72778096	     25.14011958	      0.22963067	      3.26325422	    -45.51671099	      3.50948290	     -4.94297350	     -7.87780605	      3.95034310	      1.53881058	     -3.01393958	    -21.37469472	      8.26858632	     35.84035213	     86.51662706	      0.00000000	      0.00000000	     -5.13156328	    -14.77794733	     18.06344305	     17.87206145	     86.51662706	      0.00000000	      0.00000000
      2.05000000	      1.11657459	     -1.60047118	      6.49234095	      0.30964088	      0.92061429	     -0.23200689	     -2.67698396	      7.30480541	     -6.14655721	    -14.32406008	     10.75553088	     -1.23814024	     25.47618320	      0.32164207	      3.10988533	    -42.55478464	      3.30666094	     -6.38051012	     -8.19142996	      3.85901619	      1.87256293	     -2.70351931	    -21.54464656	      8.28832199	     36.23581317	     86.51662706	      0.00000000	      0.00000000	     -5.29553534	    -14.71345520	     17.78254859	     17.71194252	     86.51662706	      0.00000000	      0.00000000
      2.06000000	      1.29526793	     -1.54571752	      6.45133096	      0.32115964	      0.91948686	     -0.23246156	     -4.05192136	      7.33151305	     -6.21186012	    -13.65150969	     11.25170988	     -0.75873517	     25.71464153	      0.39131402	      3.00966571	    -39.45422515	      3.08780952	     -7.65989115	     -8.50836794	      3.80932158	      2.18173219	     -2.40018234	    -21.72036351	      8.32353354	     36.60509606	     86.51662706	      0.00000000	      0.00000000	     -5.43373284	    -14.63441898	     17.57030508	     17.51110986	     86.51662706	      0.00000000	      0.00000000
      2.07000000	      1.47189770	     -1.52179925	      6.42553125	      0.33275554	      0.91813823	     -0.23299129	     -5.39886022	      7.38708026	     -6.25351779	    -13.03719856	     11.74451094	     -0.31736551	     25.88097688	      0.43855389	      2.95669793	    -36.25652040	      2.90695682	     -8.68673297	     -8.81210117	      3.79738664	      2.47036582	     -2.10820821	    -21.90084035	      8.37670603	     36.94363253	     86.51662706	      0.00000000	      0.00000000	     -5.54589138	    -14.54261961	     17.43877248	     17.26327011	     86.51662706	      0.00000000	      0.00000000
      2.08000000	      1.63449168	     -1.52589646	      6.41072012	      0.34444595	      0.91658452	     -0.23359941	     -6.69536718	      7.46612734	     -6.26057423	    -12.49787083	     12.23257110	      0.06429045	     26.00241002	      0.46342851	      2.94145232	    -33.01266210	      2.80699974	     -9.36419092	     -9.08651136	      3.81795569	      2.74292160	     -1.83099005	    -22.08455873	      8.44896202	     37.24669815	     86.51662706	      0.00000000	      0.00000000	     -5.63156581	    -14.43884730	     17.39802240	     16.96190570	     86.51662706	      0.00000000	      0.00000000
      2.09000000	      1.77198986	     -1.55451575	      6.40048034	      0.35623774	      0.91482891	     -0.23429147	     -7.92219120	      7.56258696	     -6.22977155	    -12.04644107	     12.71459072	      0.37435144	     26.10562543	      0.46645816	      2.94906354	    -29.78185794	      2.81405042	     -9.60298945	     -9.31786595	      3.86545687	      3.00362589	     -1.57062376	    -22.26976823	      8.53954069	     37.51002709	     86.51662706	      0.00000000	      0.00000000	     -5.69031423	    -14.32238348	     17.45550373	     16.60115441	     86.51662706	      0.00000000	      0.00000000
